<svg width="22" height="11" viewBox="0 0 22 11" fill="none" xmlns="http://www.w3.org/2000/svg">
<path fill-rule="evenodd" clip-rule="evenodd" d="M17.2485 0.99226C16.4767 -0.330753 14.5651 -0.330753 13.7934 0.99226L10.2755 7.02299C9.49769 8.3563 10.4594 10.0307 12.003 10.0307H19.0389C20.5824 10.0307 21.5442 8.3563 20.7664 7.02299L19.0209 4.03073L17.2485 0.99226ZM3.79339 9.06919C4.56514 10.3922 6.47674 10.3922 7.24849 9.06919L9.02094 6.03073L10.7664 3.03846C11.5442 1.70515 10.5824 0.0307274 9.03887 0.0307274H2.00301C0.459432 0.0307274 -0.502314 1.70515 0.275457 3.03846L3.79339 9.06919Z" fill="url(#paint0_linear_4_17)"/>
<defs>
<linearGradient id="paint0_linear_4_17" x1="-1.47906" y1="-0.969269" x2="22.5209" y2="11.0307" gradientUnits="userSpaceOnUse">
<stop stop-color="#9AC6C5"/>
<stop offset="1" stop-color="#7785AC"/>
</linearGradient>
</defs>
</svg>
